<svg width="129" height="30" viewBox="0 0 129 30" fill="none" xmlns="http://www.w3.org/2000/svg">
<path d="M112.53 29.0491C112.461 29.0491 112.391 29.0376 112.322 29.0147C112.275 28.9689 112.229 28.9232 112.182 28.8774C112.159 28.8316 112.148 28.7629 112.148 28.6713C112.148 26.8398 112.148 25.0082 112.148 23.1767C112.148 21.3451 112.148 19.5136 112.148 17.682C112.148 15.8276 112.148 13.9846 112.148 12.1531C112.148 10.3215 112.148 8.48998 112.148 6.65843C112.148 6.01739 112.148 5.41069 112.148 4.83834C112.148 4.26598 112.148 3.75086 112.148 3.29297C112.728 3.29297 113.25 3.29297 113.714 3.29297C114.201 3.29297 114.665 3.29297 115.106 3.29297C115.57 3.29297 116.023 3.29297 116.463 3.29297C116.556 3.29297 116.626 3.31586 116.672 3.36165C116.719 3.38455 116.753 3.41889 116.777 3.46468C116.823 3.51047 116.846 3.57915 116.846 3.67073C116.846 5.777 116.846 7.89473 116.846 10.0239C116.846 12.1302 116.846 14.2479 116.846 16.3771C116.846 18.4833 116.846 20.6011 116.846 22.7302C116.846 24.8365 116.846 26.9428 116.846 29.0491C116.336 29.0491 115.849 29.0491 115.384 29.0491C114.944 29.0491 114.48 29.0491 113.992 29.0491C113.528 29.0491 113.041 29.0491 112.53 29.0491ZM116.289 17.6134V13.5611H117.508C117.856 13.0574 118.227 12.5995 118.621 12.1874C119.039 11.7524 119.48 11.3861 119.944 11.0885C120.431 10.7909 120.93 10.5619 121.44 10.4017C121.974 10.2414 122.543 10.1613 123.146 10.1613C123.888 10.1613 124.561 10.2872 125.165 10.539C125.791 10.768 126.313 11.1228 126.731 11.6036C127.172 12.0615 127.496 12.6224 127.705 13.2863C127.937 13.9503 128.053 14.6943 128.053 15.5185C128.053 16.6175 128.053 17.7278 128.053 18.8497C128.053 19.9715 128.053 21.0933 128.053 22.2151C128.053 23.3369 128.053 24.4702 128.053 25.6149C128.053 26.1873 128.053 26.7596 128.053 27.332C128.053 27.9044 128.053 28.4767 128.053 29.0491C127.288 29.0491 126.568 29.0491 125.895 29.0491C125.246 29.0491 124.526 29.0491 123.738 29.0491C123.668 29.0491 123.598 29.0376 123.529 29.0147C123.482 28.9689 123.436 28.9232 123.389 28.8774C123.366 28.8316 123.355 28.7629 123.355 28.6713C123.355 27.3205 123.355 25.9698 123.355 24.619C123.355 23.2683 123.355 21.9175 123.355 20.5667C123.355 19.1931 123.355 17.8309 123.355 16.4801C123.355 15.8619 123.215 15.4041 122.937 15.1064C122.659 14.8088 122.218 14.66 121.614 14.66C121.22 14.66 120.779 14.7287 120.292 14.866C119.828 14.9805 119.352 15.1637 118.865 15.4155C118.401 15.6445 117.948 15.9421 117.508 16.3084C117.067 16.6747 116.661 17.1097 116.289 17.6134Z" fill="#3742FA"/>
<path d="M105.07 10.1613C105.929 10.1613 106.683 10.2185 107.333 10.333C107.982 10.4245 108.504 10.5505 108.899 10.7107C109.316 10.8481 109.595 10.9855 109.734 11.1228C109.78 11.1457 109.804 11.1915 109.804 11.2602C109.827 11.306 109.838 11.3632 109.838 11.4319C109.838 12.0729 109.838 12.7254 109.838 13.3894C109.838 14.0533 109.838 14.7172 109.838 15.3812H109.177C108.551 15.1064 107.901 14.9004 107.228 14.763C106.555 14.6256 105.824 14.557 105.035 14.557C104.27 14.557 103.585 14.7058 102.982 15.0034C102.379 15.2781 101.915 15.7246 101.59 16.3427C101.265 16.9609 101.103 17.7622 101.103 18.7466V20.9101C101.103 21.6427 101.195 22.2838 101.381 22.8333C101.567 23.3598 101.857 23.7948 102.251 24.1382C102.576 24.4587 102.97 24.6991 103.434 24.8594C103.898 24.9968 104.432 25.0654 105.035 25.0654C105.569 25.0654 106.068 25.0426 106.532 24.9968C106.996 24.9281 107.449 24.8365 107.889 24.722C108.33 24.6076 108.76 24.4587 109.177 24.2756H109.838C109.838 24.9395 109.838 25.6035 109.838 26.2674C109.838 26.9313 109.838 27.5953 109.838 28.2592C109.838 28.305 109.827 28.3508 109.804 28.3966C109.804 28.4424 109.78 28.4881 109.734 28.5339C109.618 28.6484 109.351 28.7858 108.934 28.946C108.539 29.0834 108.005 29.1979 107.333 29.2894C106.683 29.4039 105.929 29.4612 105.07 29.4612C103.678 29.4612 102.437 29.278 101.346 28.9117C100.256 28.5454 99.3275 28.0074 98.5618 27.2976C97.7961 26.565 97.216 25.6836 96.8216 24.6534C96.4271 23.6231 96.2299 22.4555 96.2299 21.1505V18.6779C96.2299 16.9838 96.6011 15.5071 97.3436 14.2479C98.0861 12.9658 99.1187 11.9699 100.441 11.2602C101.764 10.5276 103.307 10.1613 105.07 10.1613Z" fill="#3742FA"/>
<path d="M82.7848 10.5734C82.8776 10.5734 82.9473 10.5963 82.9937 10.6421C83.0401 10.665 83.0749 10.6993 83.0981 10.7451C83.1445 10.7909 83.1677 10.8596 83.1677 10.9511C83.1677 11.9585 83.1677 13.0002 83.1677 14.0762C83.1677 15.1293 83.1677 16.1825 83.1677 17.2356C83.1677 18.2888 83.1677 19.319 83.1677 20.3264C83.1677 21.3108 83.1677 22.2495 83.1677 23.1424C83.1677 23.646 83.2953 24.0352 83.5505 24.31C83.829 24.5847 84.2118 24.7221 84.6991 24.7221C85.2327 24.7221 85.7316 24.6763 86.1957 24.5847C86.6829 24.4702 87.1354 24.31 87.553 24.1039C87.9939 23.875 88.4116 23.5888 88.806 23.2454C89.2237 22.902 89.6065 22.4899 89.9546 22.0091V26.0614H88.7364C88.3187 26.7711 87.8547 27.3778 87.3442 27.8815C86.8338 28.3851 86.2537 28.7744 85.604 29.0491C84.9775 29.3238 84.2234 29.4612 83.3417 29.4612C82.6456 29.4612 81.9959 29.3353 81.3926 29.0834C80.7894 28.8545 80.2673 28.5111 79.8264 28.0532C79.3856 27.5953 79.0491 27.0458 78.8171 26.4048C78.5851 25.7638 78.4691 25.054 78.4691 24.2756C78.4691 23.2454 78.4691 22.2151 78.4691 21.1849C78.4691 20.1546 78.4691 19.1244 78.4691 18.0942C78.4691 17.0639 78.4691 16.0337 78.4691 15.0034C78.4691 14.2708 78.4691 13.5382 78.4691 12.8056C78.4691 12.0501 78.4691 11.306 78.4691 10.5734C79.1884 10.5734 79.9077 10.5734 80.627 10.5734C81.3694 10.5734 82.0887 10.5734 82.7848 10.5734ZM93.7134 10.5734C93.8063 10.5734 93.8759 10.5963 93.9223 10.6421C93.9687 10.665 94.0035 10.6993 94.0267 10.7451C94.0731 10.7909 94.0963 10.8596 94.0963 10.9511C94.0963 12.5995 94.0963 14.2365 94.0963 15.862C94.0963 17.4875 94.0963 19.1244 94.0963 20.7728C94.0963 22.3983 94.0963 24.0352 94.0963 25.6836C94.0963 26.1186 94.0963 26.5307 94.0963 26.9199C94.0963 27.3091 94.0963 27.6869 94.0963 28.0532C94.0963 28.4195 94.0963 28.7515 94.0963 29.0491C93.5858 29.0491 93.0754 29.0491 92.5649 29.0491C92.0776 29.0491 91.5904 29.0491 91.1031 29.0491C90.639 29.0491 90.1866 29.0491 89.7457 29.0491C89.6761 29.0491 89.6065 29.0376 89.5369 29.0147C89.4905 28.969 89.4441 28.9232 89.3977 28.8774C89.3745 28.8316 89.3629 28.7629 89.3629 28.6713C89.3629 26.6566 89.3629 24.6419 89.3629 22.6272C89.3629 20.6125 89.3629 18.6093 89.3629 16.6175C89.3629 14.6028 89.3629 12.5881 89.3629 10.5734C89.8733 10.5734 90.3606 10.5734 90.8247 10.5734C91.3119 10.5734 91.7876 10.5734 92.2517 10.5734C92.7389 10.5734 93.2262 10.5734 93.7134 10.5734Z" fill="#3742FA"/>
<path d="M67.8779 10.1613C69.1309 10.1613 70.2678 10.3559 71.2887 10.7451C72.3329 11.1343 73.2262 11.6837 73.9687 12.3934C74.7112 13.0803 75.2797 13.9045 75.6741 14.866C76.0918 15.8276 76.3006 16.8922 76.3006 18.0598V21.5283C76.3006 23.0851 75.941 24.4587 75.2217 25.6493C74.5256 26.8398 73.5394 27.7784 72.2633 28.4653C71.0103 29.1292 69.5485 29.4612 67.8779 29.4612C66.625 29.4612 65.4764 29.2666 64.4323 28.8774C63.4113 28.4881 62.5296 27.9501 61.7871 27.2633C61.0446 26.5536 60.4646 25.7179 60.0469 24.7564C59.6524 23.7948 59.4552 22.7302 59.4552 21.5626V18.0941C59.4552 16.5373 59.8033 15.1637 60.4994 13.9732C61.2187 12.7827 62.2164 11.8554 63.4925 11.1915C64.7687 10.5047 66.2305 10.1613 67.8779 10.1613ZM67.9127 14.3853C67.1238 14.3853 66.4509 14.5455 65.8941 14.866C65.3372 15.1637 64.9079 15.6101 64.6063 16.2054C64.3046 16.7777 64.1538 17.476 64.1538 18.3002V21.3222C64.1538 21.9633 64.2466 22.5356 64.4323 23.0393C64.6179 23.5201 64.8731 23.9436 65.198 24.3099C65.4996 24.6076 65.8709 24.8365 66.3117 24.9968C66.7758 25.157 67.2862 25.2372 67.8431 25.2372C68.632 25.2372 69.3049 25.0883 69.8618 24.7907C70.4418 24.4702 70.8711 24.0123 71.1495 23.4171C71.4512 22.8218 71.602 22.1235 71.602 21.3222V18.3002C71.602 17.5905 71.5208 16.9952 71.3584 16.5144C71.1959 16.0107 70.9523 15.5987 70.6275 15.2781C70.3258 14.9576 69.943 14.7287 69.4789 14.5913C69.0381 14.4539 68.516 14.3853 67.9127 14.3853Z" fill="#3742FA"/>
<path d="M44.7396 5.01005C44.8556 5.01005 44.9484 5.03295 45.018 5.07874C45.0876 5.12452 45.1457 5.20465 45.1921 5.31912C45.2617 5.4107 45.3313 5.59386 45.4009 5.86859C46.0274 8.50143 46.5726 10.8252 47.0367 12.8399C47.524 14.8317 47.9416 16.606 48.2897 18.1628C48.6609 19.6968 48.9973 21.1162 49.299 22.4212C49.6006 23.7262 49.8907 24.9968 50.1691 26.2331L48.9857 25.3402H51.7005L50.4823 26.2331C50.6912 25.2715 50.9116 24.2756 51.1436 23.2454C51.3989 22.2151 51.6657 21.1162 51.9441 19.9486C52.2458 18.7581 52.5822 17.4531 52.9535 16.0337C53.3247 14.5913 53.7308 12.9658 54.1716 11.1572C54.6357 9.34852 55.1461 7.29948 55.703 5.01005C56.4455 5.01005 57.188 5.01005 57.9305 5.01005C58.6962 5.01005 59.4387 5.01005 60.158 5.01005C60.2044 5.01005 60.2508 5.0215 60.2972 5.04439C60.3668 5.06729 60.4132 5.11308 60.4364 5.18176C60.4596 5.25044 60.4596 5.34202 60.4364 5.45649C60.274 6.05174 60.0304 6.95607 59.7055 8.16947C59.3807 9.35997 59.021 10.7336 58.6266 12.2904C58.2321 13.8244 57.8261 15.427 57.4084 17.0982C56.9908 18.7466 56.5731 20.3607 56.1555 21.9404C55.761 23.4972 55.4014 24.9052 55.0765 26.1644C54.7517 27.4236 54.4965 28.3966 54.3108 29.0834C52.9883 29.0834 51.6773 29.0834 50.3779 29.0834C49.0786 29.0834 47.93 29.0834 46.9323 29.0834C46.7003 29.0834 46.5378 29.0376 46.445 28.9461C46.3522 28.8545 46.2594 28.637 46.1666 28.2936C45.9346 27.4007 45.6793 26.4391 45.4009 25.4089C45.1456 24.3557 44.8672 23.2454 44.5656 22.0778C44.2871 20.9102 43.9855 19.6968 43.6607 18.4376C43.3358 17.1555 42.9994 15.8391 42.6513 14.4883C42.3265 13.1375 41.9784 11.741 41.6072 10.2986C41.468 9.72628 41.3172 9.15392 41.1547 8.58156C41.0155 7.98631 40.8647 7.39106 40.7023 6.79581C40.5631 6.20056 40.4122 5.6053 40.2498 5.01005C41.0155 5.01005 41.7812 5.01005 42.5469 5.01005C43.3126 5.01005 44.0435 5.01005 44.7396 5.01005Z" fill="#3742FA"/>
<path d="M31.048 10.1613C32.6258 10.1613 33.9948 10.4818 35.155 11.1228C36.3383 11.7639 37.2548 12.6567 37.9045 13.8014C38.5542 14.9462 38.879 16.2855 38.879 17.8194V20.6697C38.879 20.7384 38.8674 20.8071 38.8442 20.8758C38.821 20.9216 38.7746 20.9559 38.705 20.9788C38.6586 21.0017 38.6006 21.0132 38.531 21.0132H30.526C30.1315 21.0132 29.7255 21.0132 29.3078 21.0132C28.9134 21.0132 28.5189 21.0132 28.1245 21.0132H26.6975L26.5931 18.1285H34.3197C34.3197 18.0369 34.3197 17.9568 34.3197 17.8881C34.3197 17.8194 34.3197 17.7393 34.3197 17.6477C34.3197 16.9838 34.25 16.4228 34.1108 15.965C33.9716 15.4842 33.7512 15.1064 33.4495 14.8317C33.1943 14.557 32.8695 14.3624 32.475 14.2479C32.0806 14.1334 31.6049 14.0762 31.048 14.0762C29.8879 14.0762 29.0178 14.3624 28.4377 14.9347C27.8808 15.4842 27.6024 16.3885 27.6024 17.6477V21.8374C27.6024 22.3868 27.672 22.879 27.8112 23.314C27.9736 23.7261 28.1941 24.081 28.4725 24.3786C28.8437 24.7449 29.331 25.0082 29.9343 25.1685C30.5608 25.3287 31.2801 25.4089 32.0922 25.4089C32.9275 25.4089 33.67 25.3745 34.3197 25.3058C34.9693 25.2143 35.5726 25.0998 36.1295 24.9624C36.6864 24.8022 37.2316 24.6305 37.7653 24.4473H38.4266C38.4266 25.0197 38.4266 25.6035 38.4266 26.1987C38.4266 26.7711 38.4266 27.3549 38.4266 27.9501C38.4266 27.9959 38.415 28.0417 38.3918 28.0875C38.3686 28.1333 38.3338 28.1791 38.2874 28.2249C38.1017 28.408 37.6841 28.5912 37.0344 28.7743C36.4079 28.9575 35.6422 29.1177 34.7373 29.2551C33.8556 29.3925 32.9507 29.4612 32.0226 29.4612C30.5144 29.4612 29.1802 29.2894 28.02 28.946C26.8831 28.5797 25.9318 28.0646 25.1661 27.4007C24.4236 26.7367 23.8551 25.9354 23.4607 24.9968C23.0894 24.0352 22.9038 22.9592 22.9038 21.7687V17.8537C22.9038 16.6861 23.0894 15.633 23.4607 14.6943C23.8551 13.7557 24.412 12.9544 25.1313 12.2904C25.8506 11.6036 26.7091 11.077 27.7068 10.7107C28.7045 10.3444 29.8183 10.1613 31.048 10.1613Z" fill="#3742FA"/>
<path d="M21.0093 20.8415C21.0093 22.1464 20.8121 23.3141 20.4177 24.3443C20.0464 25.3516 19.4895 26.2102 18.7471 26.9199C18.0046 27.6067 17.1112 28.1333 16.0671 28.4996C15.0462 28.8659 13.8976 29.0491 12.6215 29.0491C12.0878 29.0491 11.4613 29.0491 10.742 29.0491C10.0227 29.0491 9.28023 29.0491 8.51453 29.0491C7.74883 29.0491 7.01794 29.0491 6.32185 29.0491C5.62576 29.0491 5.02248 29.0491 4.51201 29.0491C4.00155 29.0491 3.67671 29.0491 3.53749 29.0491C3.42147 29.0491 3.32866 29.0147 3.25905 28.9461C3.18944 28.8774 3.15464 28.7858 3.15464 28.6713C3.15464 26.9085 3.15464 25.1456 3.15464 23.3827C3.15464 21.597 3.15464 19.8227 3.15464 18.0598C3.15464 16.2741 3.15464 14.4997 3.15464 12.7369C3.15464 10.9511 3.15464 9.17682 3.15464 7.41395H8.47973L8.16649 8.16947C8.16649 8.78761 8.16649 9.463 8.16649 10.1956C8.16649 10.9053 8.16649 11.5578 8.16649 12.1531C8.16649 13.252 8.16649 14.3166 8.16649 15.3468C8.16649 16.3771 8.16649 17.3959 8.16649 18.4032C8.16649 19.4106 8.16649 20.4294 8.16649 21.4596C8.16649 22.4899 8.16649 23.5544 8.16649 24.6534C8.44492 24.6534 8.86258 24.6534 9.41945 24.6534C9.97632 24.6534 10.5448 24.6534 11.1249 24.6534C11.7049 24.6534 12.169 24.6534 12.517 24.6534C13.4452 24.6534 14.1761 24.4931 14.7097 24.1726C15.2666 23.8521 15.6727 23.3827 15.9279 22.7646C16.1831 22.1464 16.3107 21.4138 16.3107 20.5667V13.4924C16.3107 12.9658 16.2759 12.4965 16.2063 12.0844C16.1367 11.6723 16.0207 11.3174 15.8583 11.0198C15.7191 10.6993 15.545 10.4246 15.3362 10.1956C15.1274 10.0125 14.8838 9.86365 14.6053 9.74917C14.3269 9.6347 14.0136 9.55457 13.6656 9.50878C13.3408 9.4401 12.9347 9.40576 12.4474 9.40576C11.7281 9.40576 10.9044 9.40576 9.97632 9.40576C9.0482 9.40576 8.08528 9.40576 7.08755 9.40576C6.11302 9.40576 5.1733 9.40576 4.26838 9.40576C3.36347 9.40576 2.55136 9.40576 1.83207 9.40576C1.76246 9.40576 1.69285 9.39431 1.62324 9.37142C1.57684 9.32563 1.53043 9.27984 1.48402 9.23405C1.46082 9.16537 1.44922 9.09669 1.44922 9.028C1.44922 8.40986 1.44922 7.74592 1.44922 7.0362C1.44922 6.30358 1.44922 5.6282 1.44922 5.01005C2.16851 5.01005 2.98062 5.01005 3.88553 5.01005C4.81365 5.01005 5.77658 5.01005 6.77431 5.01005C7.77204 5.01005 8.73496 5.01005 9.66308 5.01005C10.6144 5.01005 11.4729 5.01005 12.2386 5.01005C13.7932 5.01005 15.1274 5.20465 16.2411 5.59386C17.3549 5.96017 18.2598 6.50963 18.9559 7.24225C19.6752 7.95197 20.1972 8.81051 20.5221 9.81786C20.8469 10.8023 21.0093 11.9241 21.0093 13.1833V20.8415Z" fill="#3742FA"/>
</svg>
