<svg width="165" height="30" viewBox="0 0 165 30" fill="none" xmlns="http://www.w3.org/2000/svg">
<path d="M148.53 29.0488C148.461 29.0488 148.391 29.0373 148.322 29.0144C148.275 28.9686 148.229 28.9228 148.182 28.8771C148.159 28.8313 148.148 28.7626 148.148 28.671C148.148 26.8395 148.148 25.0079 148.148 23.1764C148.148 21.3448 148.148 19.5133 148.148 17.6817C148.148 15.8273 148.148 13.9843 148.148 12.1528C148.148 10.3212 148.148 8.48967 148.148 6.65813C148.148 6.01709 148.148 5.41039 148.148 4.83803C148.148 4.26567 148.148 3.75055 148.148 3.29266C148.728 3.29266 149.25 3.29266 149.714 3.29266C150.201 3.29266 150.665 3.29266 151.106 3.29266C151.57 3.29266 152.023 3.29266 152.463 3.29266C152.556 3.29266 152.626 3.31556 152.672 3.36135C152.719 3.38424 152.753 3.41858 152.777 3.46437C152.823 3.51016 152.846 3.57884 152.846 3.67042C152.846 5.7767 152.846 7.89442 152.846 10.0236C152.846 12.1299 152.846 14.2476 152.846 16.3768C152.846 18.483 152.846 20.6008 152.846 22.7299C152.846 24.8362 152.846 26.9425 152.846 29.0488C152.336 29.0488 151.849 29.0488 151.384 29.0488C150.944 29.0488 150.48 29.0488 149.992 29.0488C149.528 29.0488 149.041 29.0488 148.53 29.0488ZM152.289 17.6131V13.5608H153.508C153.856 13.0571 154.227 12.5992 154.621 12.1871C155.039 11.7521 155.48 11.3858 155.944 11.0882C156.431 10.7906 156.93 10.5616 157.44 10.4013C157.974 10.2411 158.543 10.161 159.146 10.161C159.888 10.161 160.561 10.2869 161.165 10.5387C161.791 10.7677 162.313 11.1225 162.731 11.6033C163.172 12.0612 163.496 12.6221 163.705 13.286C163.937 13.95 164.053 14.694 164.053 15.5182C164.053 16.6172 164.053 17.7275 164.053 18.8493C164.053 19.9712 164.053 21.093 164.053 22.2148C164.053 23.3366 164.053 24.4699 164.053 25.6146C164.053 26.187 164.053 26.7593 164.053 27.3317C164.053 27.904 164.053 28.4764 164.053 29.0488C163.288 29.0488 162.568 29.0488 161.895 29.0488C161.246 29.0488 160.526 29.0488 159.738 29.0488C159.668 29.0488 159.598 29.0373 159.529 29.0144C159.482 28.9686 159.436 28.9228 159.389 28.8771C159.366 28.8313 159.355 28.7626 159.355 28.671C159.355 27.3202 159.355 25.9695 159.355 24.6187C159.355 23.2679 159.355 21.9172 159.355 20.5664C159.355 19.1928 159.355 17.8306 159.355 16.4798C159.355 15.8616 159.215 15.4038 158.937 15.1061C158.659 14.8085 158.218 14.6597 157.614 14.6597C157.22 14.6597 156.779 14.7284 156.292 14.8657C155.828 14.9802 155.352 15.1634 154.865 15.4152C154.401 15.6441 153.948 15.9418 153.508 16.3081C153.067 16.6744 152.661 17.1094 152.289 17.6131Z" fill="#3742FA"/>
<path d="M141.07 10.1609C141.929 10.1609 142.683 10.2182 143.333 10.3327C143.982 10.4242 144.504 10.5502 144.899 10.7104C145.316 10.8478 145.595 10.9851 145.734 11.1225C145.78 11.1454 145.804 11.1912 145.804 11.2599C145.827 11.3057 145.838 11.3629 145.838 11.4316C145.838 12.0726 145.838 12.7251 145.838 13.389C145.838 14.053 145.838 14.7169 145.838 15.3809H145.177C144.551 15.1061 143.901 14.9001 143.228 14.7627C142.555 14.6253 141.824 14.5567 141.035 14.5567C140.27 14.5567 139.585 14.7055 138.982 15.0031C138.379 15.2778 137.915 15.7243 137.59 16.3424C137.265 16.9606 137.103 17.7619 137.103 18.7463V20.9098C137.103 21.6424 137.195 22.2835 137.381 22.8329C137.567 23.3595 137.857 23.7945 138.251 24.1379C138.576 24.4584 138.97 24.6988 139.434 24.8591C139.898 24.9965 140.432 25.0651 141.035 25.0651C141.569 25.0651 142.068 25.0423 142.532 24.9965C142.996 24.9278 143.449 24.8362 143.889 24.7217C144.33 24.6073 144.76 24.4584 145.177 24.2753H145.838C145.838 24.9392 145.838 25.6032 145.838 26.2671C145.838 26.931 145.838 27.595 145.838 28.2589C145.838 28.3047 145.827 28.3505 145.804 28.3963C145.804 28.4421 145.78 28.4878 145.734 28.5336C145.618 28.6481 145.351 28.7855 144.934 28.9457C144.539 29.0831 144.005 29.1976 143.333 29.2891C142.683 29.4036 141.929 29.4608 141.07 29.4608C139.678 29.4608 138.437 29.2777 137.346 28.9114C136.256 28.5451 135.327 28.0071 134.562 27.2973C133.796 26.5647 133.216 25.6833 132.822 24.653C132.427 23.6228 132.23 22.4552 132.23 21.1502V18.6776C132.23 16.9835 132.601 15.5068 133.344 14.2476C134.086 12.9655 135.119 11.9696 136.441 11.2599C137.764 10.5273 139.307 10.1609 141.07 10.1609Z" fill="#3742FA"/>
<path d="M118.785 10.5731C118.878 10.5731 118.947 10.596 118.994 10.6418C119.04 10.6646 119.075 10.699 119.098 10.7448C119.144 10.7906 119.168 10.8593 119.168 10.9508C119.168 11.9582 119.168 12.9999 119.168 14.0759C119.168 15.129 119.168 16.1822 119.168 17.2353C119.168 18.2885 119.168 19.3187 119.168 20.326C119.168 21.3105 119.168 22.2492 119.168 23.142C119.168 23.6457 119.295 24.0349 119.551 24.3097C119.829 24.5844 120.212 24.7218 120.699 24.7218C121.233 24.7218 121.732 24.676 122.196 24.5844C122.683 24.4699 123.135 24.3097 123.553 24.1036C123.994 23.8747 124.412 23.5885 124.806 23.2451C125.224 22.9017 125.607 22.4896 125.955 22.0088V26.0611H124.736C124.319 26.7708 123.855 27.3775 123.344 27.8812C122.834 28.3848 122.254 28.774 121.604 29.0488C120.978 29.3235 120.223 29.4609 119.342 29.4609C118.646 29.4609 117.996 29.335 117.393 29.0831C116.789 28.8542 116.267 28.5108 115.826 28.0529C115.386 27.595 115.049 27.0455 114.817 26.4045C114.585 25.7634 114.469 25.0537 114.469 24.2753C114.469 23.2451 114.469 22.2148 114.469 21.1846C114.469 20.1543 114.469 19.1241 114.469 18.0939C114.469 17.0636 114.469 16.0334 114.469 15.0031C114.469 14.2705 114.469 13.5379 114.469 12.8053C114.469 12.0498 114.469 11.3057 114.469 10.5731C115.188 10.5731 115.908 10.5731 116.627 10.5731C117.369 10.5731 118.089 10.5731 118.785 10.5731ZM129.713 10.5731C129.806 10.5731 129.876 10.596 129.922 10.6418C129.969 10.6646 130.003 10.699 130.027 10.7448C130.073 10.7906 130.096 10.8593 130.096 10.9508C130.096 12.5992 130.096 14.2362 130.096 15.8617C130.096 17.4872 130.096 19.1241 130.096 20.7725C130.096 22.398 130.096 24.0349 130.096 25.6833C130.096 26.1183 130.096 26.5304 130.096 26.9196C130.096 27.3088 130.096 27.6866 130.096 28.0529C130.096 28.4192 130.096 28.7512 130.096 29.0488C129.586 29.0488 129.075 29.0488 128.565 29.0488C128.078 29.0488 127.59 29.0488 127.103 29.0488C126.639 29.0488 126.187 29.0488 125.746 29.0488C125.676 29.0488 125.607 29.0373 125.537 29.0144C125.49 28.9686 125.444 28.9229 125.398 28.8771C125.374 28.8313 125.363 28.7626 125.363 28.671C125.363 26.6563 125.363 24.6416 125.363 22.6269C125.363 20.6122 125.363 18.609 125.363 16.6172C125.363 14.6025 125.363 12.5878 125.363 10.5731C125.873 10.5731 126.361 10.5731 126.825 10.5731C127.312 10.5731 127.788 10.5731 128.252 10.5731C128.739 10.5731 129.226 10.5731 129.713 10.5731Z" fill="#3742FA"/>
<path d="M103.878 10.1609C105.131 10.1609 106.268 10.3556 107.289 10.7448C108.333 11.134 109.226 11.6834 109.969 12.3931C110.711 13.08 111.28 13.9042 111.674 14.8657C112.092 15.8273 112.301 16.8919 112.301 18.0595V21.528C112.301 23.0848 111.941 24.4584 111.222 25.6489C110.526 26.8395 109.539 27.7781 108.263 28.4649C107.01 29.1289 105.549 29.4608 103.878 29.4608C102.625 29.4608 101.476 29.2663 100.432 28.877C99.4113 28.4878 98.5296 27.9498 97.7871 27.263C97.0446 26.5533 96.4646 25.7176 96.0469 24.7561C95.6524 23.7945 95.4552 22.7299 95.4552 21.5623V18.0938C95.4552 16.537 95.8033 15.1634 96.4994 13.9729C97.2187 12.7823 98.2164 11.8551 99.4925 11.1912C100.769 10.5044 102.23 10.1609 103.878 10.1609ZM103.913 14.3849C103.124 14.3849 102.451 14.5452 101.894 14.8657C101.337 15.1634 100.908 15.6098 100.606 16.205C100.305 16.7774 100.154 17.4757 100.154 18.2999V21.3219C100.154 21.963 100.247 22.5353 100.432 23.039C100.618 23.5198 100.873 23.9433 101.198 24.3096C101.5 24.6073 101.871 24.8362 102.312 24.9965C102.776 25.1567 103.286 25.2369 103.843 25.2369C104.632 25.2369 105.305 25.088 105.862 24.7904C106.442 24.4699 106.871 24.012 107.15 23.4168C107.451 22.8215 107.602 22.1232 107.602 21.3219V18.2999C107.602 17.5902 107.521 16.9949 107.358 16.5141C107.196 16.0104 106.952 15.5983 106.627 15.2778C106.326 14.9573 105.943 14.7284 105.479 14.591C105.038 14.4536 104.516 14.3849 103.913 14.3849Z" fill="#3742FA"/>
<path d="M80.7396 5.00975C80.8556 5.00975 80.9484 5.03264 81.018 5.07843C81.0876 5.12422 81.1457 5.20435 81.1921 5.31882C81.2617 5.4104 81.3313 5.59355 81.4009 5.86828C82.0274 8.50113 82.5726 10.8249 83.0367 12.8396C83.524 14.8314 83.9416 16.6057 84.2897 18.1625C84.6609 19.6964 84.9973 21.1159 85.299 22.4209C85.6006 23.7258 85.8907 24.9965 86.1691 26.2328L84.9857 25.3399H87.7005L86.4823 26.2328C86.6912 25.2712 86.9116 24.2753 87.1436 23.2451C87.3989 22.2148 87.6657 21.1159 87.9441 19.9483C88.2458 18.7578 88.5822 17.4528 88.9535 16.0334C89.3247 14.591 89.7308 12.9655 90.1716 11.1569C90.6357 9.34822 91.1461 7.29918 91.703 5.00975C92.4455 5.00975 93.188 5.00975 93.9305 5.00975C94.6962 5.00975 95.4387 5.00975 96.158 5.00975C96.2044 5.00975 96.2508 5.02119 96.2972 5.04409C96.3668 5.06698 96.4132 5.11277 96.4364 5.18145C96.4596 5.25014 96.4596 5.34171 96.4364 5.45619C96.274 6.05144 96.0304 6.95576 95.7055 8.16916C95.3807 9.35966 95.021 10.7333 94.6266 12.2901C94.2321 13.8241 93.8261 15.4267 93.4084 17.0979C92.9908 18.7463 92.5731 20.3604 92.1555 21.9401C91.761 23.4969 91.4014 24.9049 91.0765 26.1641C90.7517 27.4233 90.4965 28.3963 90.3108 29.0831C88.9883 29.0831 87.6773 29.0831 86.3779 29.0831C85.0786 29.0831 83.93 29.0831 82.9323 29.0831C82.7003 29.0831 82.5378 29.0373 82.445 28.9457C82.3522 28.8542 82.2594 28.6367 82.1666 28.2933C81.9346 27.4004 81.6793 26.4388 81.4009 25.4086C81.1456 24.3554 80.8672 23.2451 80.5656 22.0775C80.2871 20.9098 79.9855 19.6964 79.6607 18.4373C79.3358 17.1552 78.9994 15.8388 78.6513 14.488C78.3265 13.1372 77.9784 11.7407 77.6072 10.2983C77.468 9.72597 77.3172 9.15362 77.1547 8.58126C77.0155 7.98601 76.8647 7.39076 76.7023 6.7955C76.5631 6.20025 76.4122 5.605 76.2498 5.00975C77.0155 5.00975 77.7812 5.00975 78.5469 5.00975C79.3126 5.00975 80.0435 5.00975 80.7396 5.00975Z" fill="#3742FA"/>
<path d="M67.048 10.1609C68.6258 10.1609 69.9948 10.4815 71.155 11.1225C72.3383 11.7636 73.2548 12.6564 73.9045 13.8011C74.5542 14.9459 74.879 16.2852 74.879 17.8191V20.6694C74.879 20.7381 74.8674 20.8068 74.8442 20.8755C74.821 20.9213 74.7746 20.9556 74.705 20.9785C74.6586 21.0014 74.6006 21.0129 74.531 21.0129H66.526C66.1315 21.0129 65.7255 21.0129 65.3078 21.0129C64.9134 21.0129 64.5189 21.0129 64.1245 21.0129H62.6975L62.5931 18.1282H70.3197C70.3197 18.0366 70.3197 17.9565 70.3197 17.8878C70.3197 17.8191 70.3197 17.739 70.3197 17.6474C70.3197 16.9835 70.25 16.4225 70.1108 15.9647C69.9716 15.4839 69.7512 15.1061 69.4495 14.8314C69.1943 14.5567 68.8695 14.3621 68.475 14.2476C68.0806 14.1331 67.6049 14.0759 67.048 14.0759C65.8879 14.0759 65.0178 14.3621 64.4377 14.9344C63.8808 15.4839 63.6024 16.3882 63.6024 17.6474V21.837C63.6024 22.3865 63.672 22.8787 63.8112 23.3137C63.9736 23.7258 64.1941 24.0807 64.4725 24.3783C64.8437 24.7446 65.331 25.0079 65.9343 25.1682C66.5608 25.3284 67.2801 25.4086 68.0922 25.4086C68.9275 25.4086 69.67 25.3742 70.3197 25.3055C70.9693 25.214 71.5726 25.0995 72.1295 24.9621C72.6864 24.8019 73.2316 24.6302 73.7653 24.447H74.4266C74.4266 25.0194 74.4266 25.6032 74.4266 26.1984C74.4266 26.7708 74.4266 27.3546 74.4266 27.9498C74.4266 27.9956 74.415 28.0414 74.3918 28.0872C74.3686 28.133 74.3338 28.1788 74.2874 28.2246C74.1017 28.4077 73.6841 28.5909 73.0344 28.774C72.4079 28.9572 71.6422 29.1174 70.7373 29.2548C69.8556 29.3922 68.9507 29.4608 68.0226 29.4608C66.5144 29.4608 65.1802 29.2891 64.02 28.9457C62.8831 28.5794 61.9318 28.0643 61.1661 27.4004C60.4236 26.7364 59.8551 25.9351 59.4607 24.9965C59.0894 24.0349 58.9038 22.9589 58.9038 21.7684V17.8534C58.9038 16.6858 59.0894 15.6327 59.4607 14.694C59.8551 13.7554 60.412 12.9541 61.1313 12.2901C61.8506 11.6033 62.7091 11.0767 63.7068 10.7104C64.7045 10.3441 65.8183 10.1609 67.048 10.1609Z" fill="#3742FA"/>
<path d="M57.0093 20.8412C57.0093 22.1461 56.8121 23.3137 56.4177 24.344C56.0464 25.3513 55.4895 26.2099 54.7471 26.9196C54.0046 27.6064 53.1112 28.133 52.0671 28.4993C51.0462 28.8656 49.8976 29.0488 48.6215 29.0488C48.0878 29.0488 47.4613 29.0488 46.742 29.0488C46.0227 29.0488 45.2802 29.0488 44.5145 29.0488C43.7488 29.0488 43.0179 29.0488 42.3218 29.0488C41.6258 29.0488 41.0225 29.0488 40.512 29.0488C40.0015 29.0488 39.6767 29.0488 39.5375 29.0488C39.4215 29.0488 39.3287 29.0144 39.2591 28.9457C39.1894 28.8771 39.1546 28.7855 39.1546 28.671C39.1546 26.9082 39.1546 25.1453 39.1546 23.3824C39.1546 21.5967 39.1546 19.8224 39.1546 18.0595C39.1546 16.2737 39.1546 14.4994 39.1546 12.7366C39.1546 10.9508 39.1546 9.17651 39.1546 7.41365H44.4797L44.1665 8.16916C44.1665 8.78731 44.1665 9.46269 44.1665 10.1953C44.1665 10.905 44.1665 11.5575 44.1665 12.1528C44.1665 13.2517 44.1665 14.3163 44.1665 15.3465C44.1665 16.3768 44.1665 17.3956 44.1665 18.4029C44.1665 19.4103 44.1665 20.4291 44.1665 21.4593C44.1665 22.4895 44.1665 23.5541 44.1665 24.6531C44.4449 24.6531 44.8626 24.6531 45.4194 24.6531C45.9763 24.6531 46.5448 24.6531 47.1249 24.6531C47.7049 24.6531 48.169 24.6531 48.517 24.6531C49.4452 24.6531 50.1761 24.4928 50.7097 24.1723C51.2666 23.8518 51.6727 23.3824 51.9279 22.7643C52.1831 22.1461 52.3107 21.4135 52.3107 20.5664V13.4921C52.3107 12.9655 52.2759 12.4962 52.2063 12.0841C52.1367 11.672 52.0207 11.3171 51.8583 11.0195C51.7191 10.699 51.545 10.4243 51.3362 10.1953C51.1274 10.0122 50.8838 9.86334 50.6053 9.74887C50.3269 9.6344 50.0136 9.55427 49.6656 9.50848C49.3408 9.4398 48.9347 9.40545 48.4474 9.40545C47.7281 9.40545 46.9044 9.40545 45.9763 9.40545C45.0482 9.40545 44.0853 9.40545 43.0875 9.40545C42.113 9.40545 41.1733 9.40545 40.2684 9.40545C39.3635 9.40545 38.5514 9.40545 37.8321 9.40545C37.7625 9.40545 37.6929 9.39401 37.6232 9.37111C37.5768 9.32532 37.5304 9.27954 37.484 9.23375C37.4608 9.16506 37.4492 9.09638 37.4492 9.0277C37.4492 8.40955 37.4492 7.74562 37.4492 7.03589C37.4492 6.30327 37.4492 5.62789 37.4492 5.00975C38.1685 5.00975 38.9806 5.00975 39.8855 5.00975C40.8137 5.00975 41.7766 5.00975 42.7743 5.00975C43.772 5.00975 44.735 5.00975 45.6631 5.00975C46.6144 5.00975 47.4729 5.00975 48.2386 5.00975C49.7932 5.00975 51.1274 5.20435 52.2411 5.59355C53.3549 5.95986 54.2598 6.50932 54.9559 7.24194C55.6752 7.95166 56.1972 8.8102 56.5221 9.81755C56.8469 10.802 57.0093 11.9238 57.0093 13.183V20.8412Z" fill="#3742FA"/>
<path d="M15.1032 6.82019L6.54788 24.4271L8.99039 29.4537H15.6655L29.8504 0.263428H25.6465C21.1524 0.263428 17.0526 2.8096 15.1032 6.82019Z" fill="#3742FA"/>
<path d="M10.1105 11.5593L0.266602 11.5004L6.54788 24.4271L10.1105 11.5593Z" fill="#3742FA"/>
</svg>
