<svg width="24" height="24" viewBox="0 0 24 24" fill="none" xmlns="http://www.w3.org/2000/svg">
<path fill-rule="evenodd" clip-rule="evenodd" d="M15.5918 9.7121C16.1518 10.4961 16.4478 11.4401 16.4398 12.3921C16.4398 13.3281 16.1358 14.2721 15.5918 15.0321L16.7518 15.9121C17.4878 14.8961 17.8958 13.6481 17.8958 12.3921C17.9038 11.0641 17.4638 9.7601 16.6638 8.7041L15.9998 9.3041L15.5918 9.7121Z" fill="#15EBB7"/>
<path fill-rule="evenodd" clip-rule="evenodd" d="M17.792 16.7041L13.888 13.7361C14.168 13.3681 14.328 12.9281 14.352 12.4641C14.368 12.0001 14.248 11.5521 14 11.1601L15.872 9.47215L17.824 7.64015C17.952 7.52015 17.96 7.31215 17.832 7.18415L17.56 6.91215C16.168 5.50415 14.296 4.68015 12.32 4.61615L12.328 3.54415C12.336 3.47215 12.328 3.40015 12.312 3.32815C12.288 3.25615 12.256 3.19215 12.208 3.13615C12.16 3.08015 12.104 3.04015 12.032 3.00815C11.968 2.97615 11.896 2.96015 11.824 2.96015C11.752 2.96015 11.68 2.97615 11.616 3.00815C11.552 3.04015 11.488 3.08015 11.44 3.13615C11.392 3.19215 11.352 3.25615 11.336 3.32015C11.312 3.39215 11.304 3.46415 11.32 3.53615L11.312 4.64015C10.84 4.68815 10.376 4.77615 9.92 4.91215L9.928 3.53615C9.936 3.46415 9.928 3.39215 9.912 3.32015C9.888 3.24815 9.856 3.18415 9.808 3.12815C9.76 3.07215 9.704 3.03215 9.632 3.00015C9.568 2.96815 9.496 2.95215 9.424 2.95215C9.352 2.95215 9.28 2.96815 9.216 3.00015C9.152 3.03215 9.088 3.07215 9.04 3.12815C8.992 3.18415 8.952 3.24815 8.936 3.31215C8.912 3.38415 8.904 3.45615 8.92 3.52815L8.896 5.28815C7.288 6.00815 5.968 7.25615 5.168 8.82415C4.368 10.3921 4.112 12.1921 4.464 13.9201C4.816 15.6481 5.744 17.2081 7.096 18.3361C8.448 19.4641 10.152 20.1041 11.904 20.1362L17.584 20.1601C17.76 20.1601 17.904 20.0161 17.904 19.8401V16.9681C17.912 16.8641 17.872 16.7681 17.792 16.7041ZM12.024 18.7521C10.624 18.7441 9.264 18.2721 8.16 17.4241C7.056 16.5681 6.264 15.3601 5.904 14.0081C5.544 12.6561 5.648 11.2161 6.184 9.92815C6.728 8.64015 7.672 7.56015 8.888 6.85615L8.88 8.95215C8.872 9.02415 8.88 9.09615 8.896 9.16815C8.92 9.24015 8.952 9.30415 9 9.36015C9.048 9.41615 9.104 9.45615 9.176 9.48815C9.24 9.52015 9.312 9.53615 9.384 9.53615C9.456 9.53615 9.528 9.52015 9.592 9.48815C9.656 9.45615 9.72 9.41615 9.768 9.36015C9.816 9.30415 9.856 9.24015 9.872 9.17615C9.896 9.10415 9.904 9.03215 9.888 8.96015L9.896 6.39215C10.592 6.13615 11.336 6.01615 12.08 6.01615C13.456 6.01615 14.792 6.47215 15.88 7.29615C15.96 7.36015 15.968 7.47215 15.896 7.54415L12.92 10.2721C12.648 10.1601 12.352 10.0961 12.064 10.0961C11.736 10.0961 11.416 10.1601 11.112 10.2961C10.808 10.4321 10.544 10.6321 10.336 10.8801C10.12 11.1281 9.96 11.4241 9.864 11.7281C9.768 12.0481 9.744 12.3762 9.792 12.6961C9.84 13.0241 9.952 13.3361 10.128 13.6081C10.304 13.8881 10.544 14.1201 10.808 14.3041C11.088 14.4801 11.4 14.6001 11.72 14.6481C12.048 14.6961 12.376 14.6721 12.688 14.5761L16.488 17.4641C16.528 17.4961 16.552 17.5441 16.552 17.5921L16.544 18.6081C16.544 18.6961 16.472 18.7681 16.384 18.7681L12.024 18.7521ZM12.952 12.3841C12.952 12.5601 12.896 12.7361 12.8 12.8881C12.696 13.0401 12.56 13.1521 12.392 13.2241C12.224 13.2961 12.04 13.3121 11.872 13.2721C11.704 13.2321 11.536 13.1521 11.408 13.0241C11.28 12.8961 11.192 12.7361 11.16 12.5601C11.128 12.3841 11.144 12.2001 11.216 12.0401C11.288 11.8721 11.4 11.7361 11.552 11.6321C11.704 11.5361 11.88 11.4801 12.056 11.4801C12.296 11.4801 12.528 11.5761 12.688 11.7521C12.864 11.9121 12.952 12.1361 12.952 12.3841Z" fill="#0E0333"/>
</svg>
