<svg width="24" height="24" viewBox="0 0 24 24" fill="none" xmlns="http://www.w3.org/2000/svg">
<g clip-path="url(#clip0_7406_103)">
<path d="M24 12C24 5.37258 18.6274 0 12 0C5.37258 0 0 5.37258 0 12C0 18.6274 5.37258 24 12 24C18.6274 24 24 18.6274 24 12Z" fill="#5326EC"/>
<path d="M20.95 12.2224C20.9323 12.4754 20.9262 12.7299 20.8953 12.981C20.5679 15.6475 19.3279 17.7842 17.1511 19.3489C15.5251 20.5179 13.6899 21.0635 11.6909 20.9941C9.37939 20.9144 7.38656 20.0515 5.7155 18.4471C5.70012 18.4323 5.70048 18.3733 5.7155 18.3575C7.79972 16.2637 9.8859 14.1721 11.974 12.0826C12.0234 12.0373 12.0873 12.011 12.1542 12.0087C15.0864 12.0051 18.0185 12.004 20.9506 12.0056L20.95 12.2224Z" fill="white"/>
<path d="M12.1928 3C12.4394 3.01878 12.6864 3.02972 12.932 3.05634C14.3704 3.21272 15.6952 3.68898 16.9063 4.48513C16.9145 4.49131 16.9224 4.49796 16.9299 4.50502L16.1643 5.27127C15.9976 5.43804 15.832 5.60596 15.6634 5.77062C15.6527 5.77753 15.6406 5.78171 15.6279 5.78284C15.6153 5.78393 15.6026 5.78193 15.5909 5.77695C14.3716 5.07342 13.0591 4.74985 11.6535 4.80625C8.5087 4.93335 5.76714 7.16716 5.01307 10.2303C4.54634 12.1282 4.80601 13.9312 5.76714 15.633C5.7763 15.6492 5.77681 15.6848 5.76579 15.6952C5.34856 16.1167 4.92987 16.5372 4.50976 16.9565C4.50565 16.9607 4.50059 16.964 4.49103 16.9717C4.45147 16.9103 4.41168 16.8508 4.37423 16.7901C3.33769 15.1096 2.88011 13.2831 3.02817 11.3116C3.33682 7.2132 6.37834 3.85556 10.4255 3.14253C10.8347 3.07052 11.2532 3.05224 11.6673 3.00908L11.7519 3H12.1928Z" fill="white"/>
<path d="M16.7412 8.43346C16.7419 8.05917 16.8719 7.6967 17.1091 7.40775C17.3463 7.11881 17.676 6.92121 18.0421 6.84862C18.4082 6.77601 18.788 6.83292 19.117 7.00961C19.446 7.1863 19.7037 7.4719 19.8464 7.81775C19.9891 8.16361 20.0078 8.54833 19.8995 8.90651C19.7911 9.26466 19.5624 9.57411 19.2522 9.78215C18.942 9.99019 18.5695 10.084 18.198 10.0476C17.8266 10.0111 17.4793 9.84677 17.2151 9.58241C17.0647 9.43153 16.9454 9.25241 16.8641 9.05528C16.7827 8.85811 16.741 8.64681 16.7412 8.43346Z" fill="white"/>
</g>
<defs>
<clipPath id="clip0_7406_103">
<rect width="24" height="24" fill="white"/>
</clipPath>
</defs>
</svg>
