<svg width="24" height="24" viewBox="0 0 24 24" fill="none" xmlns="http://www.w3.org/2000/svg">
<path d="M11.9466 0.481934L14.3314 3.09947L17.7055 2.02503L18.4621 5.48431L21.9213 6.24086L20.8469 9.61496L23.4644 11.9998L20.8469 14.3846L21.9213 17.7587L18.4621 18.5153L17.7055 21.9745L14.3314 20.9001L11.9466 23.5176L9.56174 20.9001L6.18764 21.9745L5.43108 18.5153L1.97181 17.7587L3.04625 14.3846L0.428711 11.9998L3.04625 9.61496L1.97181 6.24086L5.43108 5.48431L6.18764 2.02503L9.56174 3.09947L11.9466 0.481934Z" fill="#FF0420"/>
<path fill-rule="evenodd" clip-rule="evenodd" d="M10.8333 11.7109C11.0309 11.7109 11.1911 11.8711 11.1911 12.0687C11.1911 12.4638 11.5114 12.7841 11.9065 12.7841C12.3017 12.7841 12.622 12.4638 12.622 12.0687C12.622 11.8711 12.7822 11.7109 12.9797 11.7109C13.1773 11.7109 13.3375 11.8711 13.3375 12.0687C13.3375 12.859 12.6968 13.4996 11.9065 13.4996C11.1162 13.4996 10.4756 12.859 10.4756 12.0687C10.4756 11.8711 10.6357 11.7109 10.8333 11.7109Z" fill="#FBFCFE"/>
<g clip-path="url(#clip0_7418_8493)">
<path d="M8.50861 8.80469L8.71544 9.32911C8.89815 9.79239 9.26419 10.1588 9.72628 10.3411L10.2526 10.5486L9.72628 10.7562C9.26419 10.9385 8.89815 11.3049 8.71544 11.7682L8.50861 12.2926L8.30178 11.7682C8.11907 11.3049 7.75303 10.9385 7.29094 10.7562L6.76465 10.5486L7.29094 10.3411C7.75303 10.1588 8.11907 9.79239 8.30178 9.32911L8.50861 8.80469Z" fill="#FBFCFE"/>
</g>
<g clip-path="url(#clip1_7418_8493)">
<path d="M15.3944 8.80469L15.6012 9.32911C15.7839 9.79239 16.1499 10.1588 16.612 10.3411L17.1383 10.5486L16.612 10.7562C16.1499 10.9385 15.7839 11.3049 15.6012 11.7682L15.3944 12.2926L15.1875 11.7682C15.0048 11.3049 14.6388 10.9385 14.1767 10.7562L13.6504 10.5486L14.1767 10.3411C14.6388 10.1588 15.0048 9.79239 15.1875 9.32911L15.3944 8.80469Z" fill="#FBFCFE"/>
</g>
<defs>
<clipPath id="clip0_7418_8493">
<rect width="4.65057" height="4.65057" fill="white" transform="translate(6.18359 8.22314)"/>
</clipPath>
<clipPath id="clip1_7418_8493">
<rect width="4.65057" height="4.65057" fill="white" transform="translate(13.0693 8.22314)"/>
</clipPath>
</defs>
</svg>
