<svg width="21" height="20" viewBox="0 0 21 20" fill="none" xmlns="http://www.w3.org/2000/svg">
<path d="M16.5566 2.0501L16.203 1.6965L17.3278 0.607192C17.557 0.376567 17.9086 0.250004 18.2344 0.250004C18.3948 0.249585 18.5536 0.280933 18.7018 0.342239C18.85 0.403545 18.9846 0.493595 19.0978 0.607192L19.8947 1.40407C20.0078 1.51715 20.0974 1.65149 20.1584 1.79935C20.2194 1.94722 20.2505 2.10568 20.25 2.26563C20.25 2.59375 20.123 2.94297 19.8928 3.17313L18.8036 4.29714L18.45 3.94354M16.5566 2.0501L16.1973 2.39798L18.102 4.30266L18.45 3.94354M16.5566 2.0501L18.45 3.94354M16.5566 2.0501L17.6756 0.966372L17.6757 0.966437L17.6824 0.959663C17.8044 0.836918 18.0215 0.750004 18.2344 0.750006L18.2357 0.750002C18.33 0.749756 18.4235 0.768199 18.5107 0.804266C18.5979 0.840334 18.6771 0.893312 18.7437 0.960141L18.7443 0.960745L19.5411 1.75762L19.5412 1.75768C19.6077 1.82413 19.6603 1.90308 19.6962 1.98998C19.732 2.07688 19.7503 2.17001 19.75 2.264V2.26563C19.75 2.47967 19.6633 2.69552 19.5393 2.81958L19.5392 2.81953L19.5337 2.82518L18.45 3.94354M17.1945 5.21218L3.12139 19.25H1.25V17.3786L15.2882 3.30555L17.1945 5.21218Z" fill="black" stroke="black"/>
</svg>
