<svg width="15" height="28" viewBox="0 0 15 28" fill="none" xmlns="http://www.w3.org/2000/svg">
<path d="M14.9997 1.66699C14.9997 1.11471 14.552 0.666992 13.9997 0.666992H10.9997C9.23156 0.666992 7.53587 1.36937 6.28563 2.61961C5.03539 3.86986 4.33301 5.56555 4.33301 7.33366V11.3337H1.33301C0.780723 11.3337 0.333008 11.7814 0.333008 12.3337V15.667C0.333008 16.2193 0.780723 16.667 1.33301 16.667H4.33301V26.3337C4.33301 26.8859 4.78072 27.3337 5.33301 27.3337H8.66634C9.21863 27.3337 9.66634 26.8859 9.66634 26.3337V16.667H12.8856C13.3444 16.667 13.7444 16.3547 13.8557 15.9095L14.689 12.5762C14.8468 11.945 14.3695 11.3337 13.7189 11.3337H9.66634V7.33366C9.66634 6.98004 9.80682 6.6409 10.0569 6.39085C10.3069 6.1408 10.6461 6.00033 10.9997 6.00033H13.9997C14.552 6.00033 14.9997 5.55261 14.9997 5.00033V1.66699Z" fill="#3B5998"/>
</svg>
