<svg width="32" height="32" viewBox="0 0 32 32" fill="none" xmlns="http://www.w3.org/2000/svg">
<path d="M6.65834 2.96484H25.0042V29.0529H22.3112V17.1029H22.2848C21.9872 13.8002 19.2115 11.212 15.8313 11.212C12.4511 11.212 9.67535 13.8002 9.37773 17.1029H9.35131V29.0529H6.65834V2.96484Z" fill="#BE08CE"/>
<path d="M1.77734 6.66767L2.87136 10.3705H3.79707V25.3501C3.33229 25.3501 2.95552 25.7269 2.95552 26.1917V27.2015H2.78721C2.32243 27.2015 1.94565 27.5783 1.94565 28.0431V29.0529H11.371V28.0431C11.371 27.5783 10.9943 27.2015 10.5295 27.2015H10.3612V26.1917C10.3612 25.7269 9.9844 25.3501 9.51962 25.3501H8.50976V6.66767H1.77734Z" fill="#BE08CE"/>
<path d="M22.4795 25.3501C22.0147 25.3501 21.638 25.7269 21.638 26.1917V27.2015H21.4697C21.0049 27.2015 20.6281 27.5783 20.6281 28.0431V29.0529H30.0535V28.0431C30.0535 27.5783 29.6767 27.2015 29.2119 27.2015H29.0436V26.1917C29.0436 25.7269 28.6668 25.3501 28.2021 25.3501V10.3705H29.1278L30.2218 6.66767H23.4894V25.3501H22.4795Z" fill="#BE08CE"/>
</svg>
