<svg width="20" height="18" viewBox="0 0 20 18" fill="none" xmlns="http://www.w3.org/2000/svg">
<path d="M15.3997 2.41617L15.5177 2.74936H15.8711H19.25V3.24936H15.8711H15.5177L15.3997 3.58255C15.279 3.92362 15.0556 4.2189 14.7601 4.42774C14.4647 4.63658 14.1118 4.74872 13.75 4.74872C13.3882 4.74872 13.0353 4.63658 12.7399 4.42774C12.4444 4.2189 12.221 3.92362 12.1003 3.58255L11.9823 3.24936H11.6289H0.75V2.74936H11.6289H11.9823L12.1003 2.41617C12.221 2.0751 12.4444 1.77982 12.7399 1.57098C13.0353 1.36214 13.3882 1.25 13.75 1.25C14.1118 1.25 14.4647 1.36214 14.7601 1.57098C15.0556 1.77982 15.279 2.0751 15.3997 2.41617ZM4.12891 8.74936H4.48196L4.60009 8.41665C4.72119 8.07557 4.94482 7.7803 5.24034 7.57131C5.53566 7.36247 5.88831 7.25002 6.25 7.24936C6.61169 7.25002 6.96434 7.36247 7.25966 7.57131C7.55518 7.7803 7.77881 8.07557 7.89991 8.41665L8.01804 8.74936H8.37109H19.25V9.24936H8.37109H8.01765L7.89974 9.58255C7.77904 9.92362 7.55559 10.2189 7.26015 10.4277L7.54876 10.836L7.26015 10.4277C6.96471 10.6366 6.6118 10.7487 6.25 10.7487C5.8882 10.7487 5.53529 10.6366 5.23985 10.4277L4.95124 10.836L5.23985 10.4277C4.94441 10.2189 4.72096 9.92362 4.60026 9.58255L4.48235 9.24936H4.12891H0.75V8.74936H4.12891ZM11.6289 14.7494H11.982L12.1001 14.4166C12.2212 14.0756 12.4448 13.7803 12.7403 13.5713C13.0357 13.3625 13.3883 13.25 13.75 13.2494C14.1117 13.25 14.4643 13.3625 14.7597 13.5713C15.0552 13.7803 15.2788 14.0756 15.3999 14.4166L15.518 14.7494H15.8711H19.25V15.2494H15.8711H15.5177L15.3997 15.5826C15.279 15.9236 15.0556 16.2189 14.7601 16.4277C14.4647 16.6366 14.1118 16.7487 13.75 16.7487C13.3882 16.7487 13.0353 16.6366 12.7399 16.4277C12.4444 16.2189 12.221 15.9236 12.1003 15.5826L11.9823 15.2494H11.6289H0.75V14.7494H11.6289Z" fill="black" stroke="black"/>
</svg>
