<?xml version="1.0" encoding="utf-8"?>
<svg viewBox="20 17 32 32" xmlns="http://www.w3.org/2000/svg">
  <defs>
    <filter id="filter0_d_7538_10081" x="0" y="0" width="72" height="72" filterUnits="userSpaceOnUse" color-interpolation-filters="sRGB">
      <feFlood flood-opacity="0" result="BackgroundImageFix"/>
      <feColorMatrix in="SourceAlpha" type="matrix" values="0 0 0 0 0 0 0 0 0 0 0 0 0 0 0 0 0 0 127 0" result="hardAlpha"/>
      <feOffset dy="3"/>
      <feGaussianBlur stdDeviation="10"/>
      <feColorMatrix type="matrix" values="0 0 0 0 0.832222 0 0 0 0 0.855556 0 0 0 0 0.933333 0 0 0 0.4 0"/>
      <feBlend mode="normal" in2="BackgroundImageFix" result="effect1_dropShadow_7538_10081"/>
      <feBlend mode="normal" in="SourceGraphic" in2="effect1_dropShadow_7538_10081" result="shape"/>
    </filter>
  </defs>
  <g filter="url(#filter0_d_7538_10081)">
    <rect x="20" y="17" width="32" height="32" rx="16" fill="white"/>
  </g>
  <path d="M47.9333 33.2958C47.9098 33.6331 47.9015 33.9726 47.8604 34.3074C47.4239 37.8628 45.7705 40.7117 42.8682 42.7978C40.7001 44.3566 38.2531 45.0841 35.5879 44.9915C32.5059 44.8852 29.8487 43.7347 27.6207 41.5955C27.6002 41.5758 27.6007 41.497 27.6207 41.476C30.3996 38.6843 33.1812 35.8955 35.9654 33.1095C36.0312 33.049 36.1164 33.0141 36.2056 33.011C40.1152 33.0061 44.0247 33.0047 47.9341 33.0068L47.9333 33.2958Z" fill="black"/>
  <path d="M36.2568 21C36.5855 21.025 36.9148 21.0396 37.2424 21.0751C39.1603 21.2836 40.9266 21.9186 42.5414 22.9802C42.5523 22.9884 42.5628 22.9973 42.5728 23.0067L41.552 24.0284C41.3298 24.2507 41.1091 24.4746 40.8842 24.6942C40.87 24.7034 40.8538 24.709 40.8369 24.7104C40.8201 24.7119 40.8031 24.7092 40.7875 24.7026C39.1618 23.7646 37.4119 23.3331 35.5377 23.4083C31.3446 23.5778 27.6892 26.5562 26.6838 30.6404C26.0615 33.1709 26.4077 35.575 27.6892 37.844C27.7014 37.8655 27.7021 37.9131 27.6874 37.9269C27.1311 38.4889 26.5728 39.0496 26.0127 39.6087C26.0072 39.6142 26.0004 39.6187 25.9877 39.629C25.935 39.547 25.8819 39.4678 25.832 39.3869C24.4499 37.1462 23.8398 34.7108 24.0372 32.0821C24.4488 26.6176 28.5041 22.1407 33.9004 21.19C34.446 21.094 35.004 21.0696 35.5561 21.0121L35.6688 21H36.2568Z" fill="black"/>
  <path d="M42.3223 28.244C42.3232 27.7449 42.4966 27.2616 42.8128 26.8763C43.1291 26.4911 43.5687 26.2276 44.0568 26.1308C44.5449 26.034 45.0514 26.1099 45.49 26.3455C45.9286 26.5811 46.2723 26.9619 46.4625 27.423C46.6527 27.8841 46.6778 28.3971 46.5333 28.8747C46.3888 29.3522 46.0838 29.7648 45.6702 30.0422C45.2566 30.3196 44.7599 30.4447 44.2647 30.3961C43.7695 30.3475 43.3064 30.1284 42.9542 29.7759C42.7536 29.5747 42.5945 29.3359 42.4861 29.073C42.3777 28.8102 42.322 28.5284 42.3223 28.244Z" fill="black"/>
</svg>
