<svg width="22" height="20" viewBox="0 0 22 20" fill="none" xmlns="http://www.w3.org/2000/svg">
<path d="M20.375 0.25H1.625H0.5V1.375V14.875V16H1.625H5V19.75L10.5191 16H20.375H21.5L21.5 14.875V1.375V0.25H20.375ZM6.5 9.625C6.20333 9.625 5.91332 9.53703 5.66665 9.3722C5.41997 9.20738 5.22771 8.97311 5.11418 8.69903C5.00065 8.42494 4.97094 8.12334 5.02882 7.83236C5.0867 7.54139 5.22956 7.27412 5.43934 7.06434C5.64912 6.85456 5.91639 6.7117 6.20736 6.65382C6.49834 6.59594 6.79994 6.62565 7.07403 6.73918C7.34811 6.85271 7.58238 7.04497 7.7472 7.29165C7.91203 7.53832 8 7.82833 8 8.125C8 8.52283 7.84196 8.90436 7.56066 9.18566C7.27936 9.46696 6.89782 9.625 6.5 9.625ZM11 9.625C10.7033 9.625 10.4133 9.53703 10.1666 9.3722C9.91997 9.20738 9.72771 8.97311 9.61418 8.69903C9.50065 8.42494 9.47094 8.12334 9.52882 7.83236C9.5867 7.54139 9.72956 7.27412 9.93934 7.06434C10.1491 6.85456 10.4164 6.7117 10.7074 6.65382C10.9983 6.59594 11.2999 6.62565 11.574 6.73918C11.8481 6.85271 12.0824 7.04497 12.2472 7.29165C12.412 7.53832 12.5 7.82833 12.5 8.125C12.5 8.52283 12.342 8.90436 12.0607 9.18566C11.7794 9.46696 11.3978 9.625 11 9.625ZM15.5 9.625C15.2033 9.625 14.9133 9.53703 14.6666 9.3722C14.42 9.20738 14.2277 8.97311 14.1142 8.69903C14.0006 8.42494 13.9709 8.12334 14.0288 7.83236C14.0867 7.54139 14.2296 7.27412 14.4393 7.06434C14.6491 6.85456 14.9164 6.7117 15.2074 6.65382C15.4983 6.59594 15.7999 6.62565 16.074 6.73918C16.3481 6.85271 16.5824 7.04497 16.7472 7.29165C16.912 7.53832 17 7.82833 17 8.125C17 8.52283 16.842 8.90436 16.5607 9.18566C16.2794 9.46696 15.8978 9.625 15.5 9.625Z" fill="black"/>
</svg>
