<svg width="24" height="24" viewBox="0 0 24 24" fill="none" xmlns="http://www.w3.org/2000/svg">
<g id="options-sharp 1">
<path id="Vector" d="M17.3997 5.41617L17.5177 5.74936H17.8711H21.25V6.24936H17.8711H17.5177L17.3997 6.58255C17.279 6.92362 17.0556 7.2189 16.7601 7.42774C16.4647 7.63658 16.1118 7.74872 15.75 7.74872C15.3882 7.74872 15.0353 7.63658 14.7399 7.42774C14.4444 7.2189 14.221 6.92362 14.1003 6.58255L13.9823 6.24936H13.6289H2.75V5.74936H13.6289H13.9823L14.1003 5.41617C14.221 5.0751 14.4444 4.77982 14.7399 4.57098C15.0353 4.36214 15.3882 4.25 15.75 4.25C16.1118 4.25 16.4647 4.36214 16.7601 4.57098C17.0556 4.77982 17.279 5.0751 17.3997 5.41617ZM6.12891 11.7494H6.48196L6.60009 11.4166C6.72119 11.0756 6.94482 10.7803 7.24034 10.5713C7.53566 10.3625 7.88831 10.25 8.25 10.2494C8.61169 10.25 8.96434 10.3625 9.25966 10.5713C9.55518 10.7803 9.77881 11.0756 9.89991 11.4166L10.018 11.7494H10.3711H21.25V12.2494H10.3711H10.0177L9.89974 12.5826C9.77904 12.9236 9.55559 13.2189 9.26015 13.4277L9.54876 13.836L9.26015 13.4277C8.96471 13.6366 8.6118 13.7487 8.25 13.7487C7.8882 13.7487 7.53529 13.6366 7.23985 13.4277L6.95124 13.836L7.23985 13.4277C6.94441 13.2189 6.72096 12.9236 6.60026 12.5826L6.48235 12.2494H6.12891H2.75V11.7494H6.12891ZM13.6289 17.7494H13.982L14.1001 17.4166C14.2212 17.0756 14.4448 16.7803 14.7403 16.5713C15.0357 16.3625 15.3883 16.25 15.75 16.2494C16.1117 16.25 16.4643 16.3625 16.7597 16.5713C17.0552 16.7803 17.2788 17.0756 17.3999 17.4166L17.518 17.7494H17.8711H21.25V18.2494H17.8711H17.5177L17.3997 18.5826C17.279 18.9236 17.0556 19.2189 16.7601 19.4277C16.4647 19.6366 16.1118 19.7487 15.75 19.7487C15.3882 19.7487 15.0353 19.6366 14.7399 19.4277C14.4444 19.2189 14.221 18.9236 14.1003 18.5826L13.9823 18.2494H13.6289H2.75V17.7494H13.6289Z" fill="black" stroke="black"/>
</g>
</svg>
