<svg width="24" height="24" viewBox="0 0 24 24" fill="none" xmlns="http://www.w3.org/2000/svg">
<path d="M12.0001 21.75C6.62396 21.75 2.25005 17.3798 2.25005 12.0084C2.24543 10.5764 2.55715 9.1611 3.16294 7.86355C3.76873 6.56599 4.65364 5.41825 5.75443 4.50234L6.54661 3.84609L7.86708 5.42672L7.07489 6.08297C6.20656 6.80632 5.50871 7.71253 5.03119 8.73684C4.55367 9.76116 4.30828 10.8783 4.31255 12.0084C4.31255 16.2455 7.76114 19.6927 12.0001 19.6927C16.239 19.6927 19.6875 16.2455 19.6875 12.0084C19.6875 10.8751 19.4358 9.75601 18.9509 8.73173C18.4659 7.70746 17.7596 6.80359 16.883 6.08531L16.0861 5.42906L17.3986 3.84375L18.1955 4.5C19.3066 5.41063 20.2017 6.55646 20.8164 7.85486C21.431 9.15327 21.7499 10.5719 21.75 12.0084C21.75 17.3798 17.3761 21.75 12.0001 21.75Z" fill="black"/>
<path d="M10.9688 2.25H13.0312V12.75H10.9688V2.25Z" fill="black"/>
</svg>
