<svg width="18" height="21" viewBox="0 0 18 21" fill="none" xmlns="http://www.w3.org/2000/svg">
<path d="M1.78125 21H0V1.18922L0.219844 0.969844C0.381563 0.807656 1.34906 0 4.5 0C6.24422 0 8.19516 0.689531 9.91641 1.2975C11.3025 1.78734 12.6117 2.25 13.5 2.25C15.5077 2.25 16.9088 1.58203 16.9219 1.575L18 1.05281V13.2136L17.5856 13.4208C17.5177 13.4531 15.8995 14.25 13.5 14.25C12.3684 14.25 10.9509 13.9153 9.45047 13.5605C7.76391 13.162 6.02016 12.75 4.5 12.75C2.77172 12.75 2.16844 13.0116 1.78125 13.177V21Z" fill="url(#paint0_linear_7583_3098)"/>
<defs>
<linearGradient id="paint0_linear_7583_3098" x1="9" y1="21" x2="9" y2="-11.1972" gradientUnits="userSpaceOnUse">
<stop stop-color="#FF416C"/>
<stop offset="1" stop-color="#FF4B2B"/>
</linearGradient>
</defs>
</svg>
