<svg width="24" height="24" viewBox="0 0 24 24" fill="none" xmlns="http://www.w3.org/2000/svg">
<path d="M21.75 20.0625L15.9338 14.2453C16.8711 12.9572 17.3753 11.4049 17.3738 9.81188C17.3738 5.64234 13.9814 2.25 9.81188 2.25C5.64234 2.25 2.25 5.64234 2.25 9.81188C2.25 13.9814 5.64234 17.3738 9.81188 17.3738C11.4049 17.3753 12.9572 16.8711 14.2453 15.9338L20.0625 21.75L21.75 20.0625ZM9.81188 14.9855C8.7885 14.9856 7.78809 14.6822 6.93714 14.1137C6.0862 13.5452 5.42296 12.7371 5.03129 11.7917C4.63961 10.8462 4.53711 9.80583 4.73674 8.80211C4.93637 7.7984 5.42916 6.87643 6.15279 6.15279C6.87643 5.42916 7.7984 4.93637 8.80211 4.73674C9.80583 4.53711 10.8462 4.63961 11.7917 5.03129C12.7371 5.42296 13.5452 6.0862 14.1137 6.93714C14.6822 7.78809 14.9856 8.7885 14.9855 9.81188C14.9839 11.1835 14.4383 12.4985 13.4684 13.4684C12.4985 14.4383 11.1835 14.9839 9.81188 14.9855Z" fill="black"/>
</svg>
