<svg width="18" height="20" viewBox="0 0 18 20" fill="none" xmlns="http://www.w3.org/2000/svg">
<path d="M14.7188 13.6879H14.719C15.2878 13.6879 15.8429 13.8623 16.3095 14.1876C16.7761 14.5128 17.1317 14.9733 17.3285 15.507C17.5253 16.0406 17.5537 16.6218 17.4099 17.1721C17.2662 17.7224 16.9572 18.2154 16.5245 18.5847C16.0919 18.9539 15.5564 19.1816 14.9904 19.2371C14.4243 19.2926 13.8548 19.1732 13.3587 18.8951C12.8626 18.6169 12.4637 18.1933 12.2158 17.6814C11.9679 17.1694 11.8829 16.5938 11.9723 16.0321L12.027 15.6885L11.7238 15.5178L5.62391 12.0847L5.32348 11.9156L5.05862 12.1363C4.6525 12.4746 4.15837 12.6902 3.63412 12.7579C3.10986 12.8255 2.57719 12.7423 2.09851 12.5181C1.61983 12.2938 1.21496 11.9378 0.931333 11.4918C0.647707 11.0457 0.49707 10.5281 0.49707 9.99947C0.49707 9.47087 0.647707 8.95322 0.931333 8.50716C1.21496 8.06109 1.61983 7.70509 2.09851 7.48086C2.57719 7.25663 3.10986 7.17345 3.63412 7.24107C4.15837 7.3087 4.6525 7.52432 5.05862 7.86268L5.32341 8.08329L5.62381 7.91432L11.7236 4.48307L12.0268 4.31256L11.9724 3.96905C11.8694 3.31925 12.0011 2.65402 12.3439 2.09247L11.9171 1.83197L12.3439 2.09246C12.6866 1.53091 13.2181 1.10968 13.8431 0.904198C14.4681 0.698716 15.1458 0.722393 15.7549 0.970991C16.364 1.21959 16.8648 1.67688 17.1675 2.26099C17.4703 2.8451 17.5552 3.51789 17.4072 4.15892C17.2592 4.79995 16.8878 5.36736 16.3596 5.75958C15.8314 6.15179 15.1808 6.34319 14.5244 6.29952C13.8679 6.25584 13.2484 5.97994 12.7768 5.52122L12.5089 5.26059L12.1831 5.44382L6.22388 8.79539L5.89388 8.98098L5.98305 9.34894C6.08679 9.77706 6.08679 10.2238 5.98305 10.6519L5.89387 11.0199L6.22394 11.2055L12.185 14.557L12.5119 14.7408L12.7798 14.4785C13.2979 13.9715 13.994 13.6877 14.7188 13.6879Z" fill="black" stroke="black"/>
</svg>
