<svg width="19" height="22" viewBox="0 0 19 22" fill="none" xmlns="http://www.w3.org/2000/svg">
<path d="M18.4789 3.5H13.25V1.25C13.25 1.05109 13.171 0.860322 13.0303 0.71967C12.8897 0.579018 12.6989 0.5 12.5 0.5H6.5C6.30109 0.5 6.11032 0.579018 5.96967 0.71967C5.82902 0.860322 5.75 1.05109 5.75 1.25V3.5H0.521094L0.5 5.375H2.04688L2.98859 20.0938C3.01243 20.4744 3.18035 20.8316 3.45821 21.0929C3.73607 21.3541 4.103 21.4997 4.48438 21.5H14.5156C14.8968 21.4999 15.2636 21.3548 15.5416 21.094C15.8196 20.8333 15.9879 20.4765 16.0123 20.0961L16.9531 5.375H18.5L18.4789 3.5ZM5.75 18.5L5.32812 6.5H6.875L7.29688 18.5H5.75ZM10.25 18.5H8.75V6.5H10.25V18.5ZM11.375 3.5H7.625V2.1875C7.625 2.13777 7.64475 2.09008 7.67992 2.05492C7.71508 2.01975 7.76277 2 7.8125 2H11.1875C11.2372 2 11.2849 2.01975 11.3201 2.05492C11.3552 2.09008 11.375 2.13777 11.375 2.1875V3.5ZM13.25 18.5H11.7031L12.125 6.5H13.6719L13.25 18.5Z" fill="black"/>
</svg>
