<svg width="24" height="24" viewBox="0 0 24 24" fill="none" xmlns="http://www.w3.org/2000/svg">
<g id="trash-sharp 1" opacity="0.6">
<path id="Vector" d="M20.9789 4.5H15.75V2.25C15.75 2.05109 15.671 1.86032 15.5303 1.71967C15.3897 1.57902 15.1989 1.5 15 1.5H9C8.80109 1.5 8.61032 1.57902 8.46967 1.71967C8.32902 1.86032 8.25 2.05109 8.25 2.25V4.5H3.02109L3 6.375H4.54688L5.48859 21.0938C5.51243 21.4744 5.68035 21.8316 5.95821 22.0929C6.23607 22.3541 6.603 22.4997 6.98438 22.5H17.0156C17.3968 22.4999 17.7636 22.3548 18.0416 22.094C18.3196 21.8333 18.4879 21.4765 18.5123 21.0961L19.4531 6.375H21L20.9789 4.5ZM8.25 19.5L7.82812 7.5H9.375L9.79688 19.5H8.25ZM12.75 19.5H11.25V7.5H12.75V19.5ZM13.875 4.5H10.125V3.1875C10.125 3.13777 10.1448 3.09008 10.1799 3.05492C10.2151 3.01975 10.2628 3 10.3125 3H13.6875C13.7372 3 13.7849 3.01975 13.8201 3.05492C13.8552 3.09008 13.875 3.13777 13.875 3.1875V4.5ZM15.75 19.5H14.2031L14.625 7.5H16.1719L15.75 19.5Z" fill="black"/>
</g>
</svg>
