<svg width="24" height="24" viewBox="0 0 24 24" fill="none" xmlns="http://www.w3.org/2000/svg">
<path d="M22.4532 20.9895L12.5827 2.65533C12.5506 2.59568 12.503 2.54584 12.4448 2.5111C12.3867 2.47635 12.3202 2.45801 12.2525 2.45801C12.1847 2.45801 12.1183 2.47635 12.0601 2.5111C12.002 2.54584 11.9543 2.59568 11.9222 2.65533L2.04988 20.9895C2.01914 21.0467 2.00375 21.1108 2.00522 21.1757C2.0067 21.2406 2.02498 21.304 2.05828 21.3597C2.09158 21.4153 2.13876 21.4614 2.19522 21.4934C2.25167 21.5254 2.31546 21.5422 2.38035 21.5422H22.125C22.1897 21.5418 22.2532 21.5247 22.3094 21.4926C22.3655 21.4604 22.4123 21.4143 22.4454 21.3587C22.4784 21.303 22.4965 21.2398 22.4978 21.1751C22.4992 21.1104 22.4838 21.0465 22.4532 20.9895ZM13.1897 19.2885H11.3147V17.4135H13.1897V19.2885ZM13.0022 16.2922H11.5022L11.221 8.7922H13.2835L13.0022 16.2922Z" fill="black"/>
</svg>
